Patient4_TMGait_0pt7_01_right_40_EMG.mot
version=1
nRows=30
nColumns=33
inDegrees=no
endheader
time	1LAddLong	2LGlutMax	3LGlutMed	4LIliopsoas	5LSemiMemb	6LBicFemLong	7LRecFem	8LVastMed	9LVastLat	10LGasMed	11LTibAnt	12lTibPost	13LPeroneusLong	14LSol	15LExtDigLong	16LFlexDigLong	17RAddLong	18RGlutMax	19RGlutMed	20RIliopsoas	21RSemiMemb	22RBicFemLong	23RRecFem	24RVastMed	25RVastLat	26RGasMed	27RTibAnt	28RTibPost	29RPeroneusLong	30RSol	31RExtDigLong	32RFlexDigLong
46.135	-0.000916	-0.33005	0.11124	0.003052	0.014801	0.015411	-0.23697	-0.002441	0.071259	0.003967	-0.015564	-0.052948	-0.012665	-0.16937	0.016937	0.043182	-0.014496	-0.40405	-0.52277	0.047455	-0.11932	0.087433	-0.093231	0.18066	-0.58655	-0.24109	-0.032959	0.055695	1.0973	0.14496	-0.00412	0.002289
46.136	-0.004425	-0.35065	0.11124	-0.023193	0.011902	0.005035	-0.21103	-0.006866	0.051575	-0.000763	-0.025635	-0.061493	-0.045319	-0.079651	0.018768	0.055542	-0.029602	-0.38849	-0.92438	-0.036163	-0.22018	0.14236	-0.14404	0.069275	-0.67062	-0.18616	-0.089722	0.14435	1.2445	0.35431	-0.002747	-0.006409
46.137	-0.00885	-0.41428	0.12787	-0.038605	0.013123	0.015411	-0.13336	-0.000916	0.036316	-0.006409	-0.024567	0.032043	-0.20691	-0.049438	-0.007935	0.077057	0.023651	-0.40375	-0.87341	-0.096436	-0.046387	0.092926	-0.042725	-0.14725	-0.72266	0.014343	-0.06485	0.040436	0.59509	0.31677	0.000458	-0.014038
46.138	-0.007782	-0.41107	0.14725	-0.047302	0.017242	0.013733	-0.04837	-0.000916	0.030212	-0.005188	-0.025177	-0.19791	-0.29221	0.24277	-0.01709	0.077667	0.033112	-0.55756	-0.53513	-0.14114	-0.035553	-0.019226	-0.004578	-0.32364	-0.85632	0.072327	0.005493	-0.016327	-0.24628	0.10727	0.001831	-0.011139
46.139	-0.017853	-0.40588	0.12787	-0.044861	0.009613	0.022583	0.016022	-0.001068	0.025482	-0.031433	-0.02121	-0.3067	-0.16769	0.37598	-0.049744	0.085907	0.042419	-0.54504	-0.62531	-0.10727	-0.081787	-0.13351	0.22186	-0.29175	-0.81497	0.001678	0.03006	-0.034485	0.64255	0.016479	0.003662	-0.019226
46.14	-0.019379	-0.40237	0.14374	-0.042267	0.007935	0.032654	0.091248	-0.005493	0.010529	-0.036011	-0.014343	-0.047455	-0.16632	0.085602	-0.017853	0.096588	0.018311	-0.45212	-0.39139	-0.1181	-0.0177	-0.26169	0.24368	-0.1239	-0.51804	0.045471	0.088806	0.023193	0.88928	0.16052	-0.000763	-0.023804
46.141	-0.017242	-0.38956	0.1442	-0.010529	-0.000305	0.040131	0.13168	0.011597	-0.005035	-0.019836	-0.011902	-0.052032	-0.16113	0.050659	0.045166	0.11307	-0.005341	-0.32745	0.099487	-0.040894	-0.17716	-0.4097	0.22705	-0.14084	-0.42084	-0.093689	0.078278	-0.077515	0.93735	0.37857	-0.000458	-0.025177
46.142	-0.016632	-0.41962	0.159	0.003357	0.005493	0.054016	0.20828	0.00351	-0.016174	-0.018616	-0.006714	-0.04837	-0.1474	0.088806	0.049286	0.092316	0.026245	-0.40848	-0.1207	-0.073853	-0.11429	-0.44281	0.27222	-0.17227	-0.41657	-0.075989	0.11978	-0.11292	-0.060425	0.29953	0.002747	-0.009613
46.143	-0.012512	-0.46188	0.16937	0.009308	0.006104	0.048065	0.20889	0.011597	-0.012817	0.000305	-0.008698	-0.028839	-0.17029	0.19348	0.075073	0.08606	-0.024414	-0.65735	-0.48492	-0.017395	-0.242	-0.50369	0.16098	-0.10452	-0.38956	0.04715	0.14435	0.12009	-0.26932	0.1947	-0.002289	-0.013123
46.144	-0.012054	-0.44586	0.17838	0.008087	0.000458	0.033875	0.22522	0.01236	-0.005035	0.004425	-0.01297	-0.003815	-0.20828	0.14984	0.085449	0.088196	-0.01236	-0.85541	-0.5365	0.093384	-0.29816	-0.672	0.035706	-0.010986	-0.37643	0.072632	-0.079041	0.026398	-0.096283	0.091553	-0.001221	-0.015106
46.145	0.000763	-0.44601	0.18768	-0.002747	0.006714	0.011292	0.19501	0.010681	0.00824	0.026093	-0.021973	0.005951	-0.19852	-0.011139	0.056458	0.093536	0.026703	-0.87891	-0.51865	0.075836	0.052185	-0.48523	-0.021667	-0.0177	-0.3302	0.06424	-0.062256	-0.002899	-1.1839	-0.039368	-0.000458	-0.020752
46.146	0.00824	-0.44327	0.20935	-0.005493	0.012665	0.039673	0.20477	0.022125	0.009003	0.033569	-0.034027	0.015106	-0.16525	-0.064392	0.024109	0.088043	0.064697	-0.88943	-0.18784	0.1062	-0.06897	0.006104	-0.005188	0.007172	-0.25528	0.008087	0.21576	-0.014191	-1.1992	0.010834	-0.003052	-0.018158
46.147	0.045319	-0.41901	0.159	-0.038757	0.011139	0.017853	0.2475	0.014496	0.019989	0.054779	-0.045471	0.022278	-0.12009	0.014648	0.072021	0.070801	0.074158	-0.8374	0.34897	0.16602	-0.78919	0.32288	0.021362	-0.064087	-0.2359	0.001831	0.086823	-0.015411	0.56747	-0.015259	0.001221	-0.008545
46.148	-0.007172	-0.39291	0.14999	-0.051727	0.004272	0.009613	0.271	0.002136	0.020142	0.046692	-0.068665	0.003357	-0.11139	0.014801	0.055084	0.09079	0.028381	-0.73105	0.06897	0.13916	-0.8551	0.56763	0.063629	-0.066223	-0.12466	-0.090027	0.15167	-0.000763	1.0149	-0.21469	-0.00061	-0.012512
46.149	-0.001678	-0.37399	0.14053	-0.040283	0.002136	0.01709	0.3096	0.00824	0.02243	0.042267	-0.094604	-0.033722	-0.084381	0.045013	0.030518	0.063019	0.021667	-0.87463	-0.53314	0.032806	-0.42816	0.27435	-0.008392	0.16541	-0.009766	-0.1059	0.11704	0.013123	0.70496	-1.0873	-0.001526	-0.013885
46.15	0.008392	-0.43716	0.15335	-0.011597	0.002441	0.008392	0.29694	0.010529	0.035858	0.044708	-0.089874	-0.019226	-0.099335	-0.019226	-0.018768	0.044403	-0.04364	-1.0228	-0.42435	-0.033875	0.10864	-0.2507	0.16159	0.10742	-0.071259	-0.085602	-0.050507	-0.005341	0.77637	-1.4088	-0.001068	-0.016022
46.151	0.002594	-0.46738	0.15671	-0.013123	0.007172	-0.003967	0.26016	0.011749	0.051117	0.03952	-0.058136	0.001526	-0.17136	-0.054932	0.001526	0.061035	-0.071106	-1.0866	-0.78232	0.080109	0.2594	-0.50873	0.40924	0.035095	-0.21194	-0.058746	0.13077	-0.011292	-0.73349	-0.59403	0.000305	-0.014954
46.152	0.012512	-0.45487	0.17944	-0.019684	0.01236	-0.011597	0.25192	0.010681	0.044556	0.048523	-0.045471	0.031586	-0.16159	0.028839	0.025787	0.05249	-0.000305	-1.0123	-0.46967	-0.020599	0.17044	-0.50949	0.46127	0.005035	-0.31128	0.054779	0.032654	-0.01358	0.06546	-0.33737	-0.001068	-0.02182
46.153	0.002289	-0.44083	0.1387	-0.016479	0.015717	-0.03891	0.30914	0.011139	0.041809	0.048981	0.028381	0.045624	-0.13184	0.00946	-0.023193	0.036011	-0.019379	-0.98557	-0.051727	-0.062561	-0.007629	-0.55054	0.29129	0.2298	-0.29846	0.087128	-0.013885	-0.011749	0.081787	-0.32028	-0.000916	-0.027161
46.154	0.002747	-0.4361	0.11337	-0.001678	0.012817	-0.033264	0.38513	0.010376	0.041504	0.061188	0.12589	0.049286	-0.08728	-0.021973	-0.065155	0.029449	-0.06485	-1.1887	0.46524	-0.071106	0.089874	-0.14969	0.31067	0.14053	-0.19226	-0.020142	0.05127	-0.02594	-1.5718	-0.32944	-0.005951	-0.029602
46.155	-0.00412	-0.40726	0.15152	0.00412	0.009766	-0.019226	0.44601	0.017242	0.051117	0.079346	0.14114	0.073547	-0.087128	-0.03006	-0.062103	0.016785	-0.020752	-1.4346	0.44311	-0.001526	0.14465	0.32715	0.30182	0.19577	-0.11185	-0.11551	0.02243	-0.012207	-0.51804	0.10574	-0.00351	-0.027771
46.156	-0.005646	-0.3801	0.19699	-0.001831	0.01297	-0.022583	0.48065	0.015411	0.066528	0.081177	0.032806	0.08255	-0.16571	-0.041351	-0.055084	0.027008	0.002289	-1.8684	-0.25772	0.082092	0.000305	0.29465	0.37003	0.098114	-0.20996	-0.23544	-0.11169	-0.038757	0.60593	0.036774	-0.002594	-0.030975
46.157	-0.00946	-0.33127	0.12833	-0.006714	0.002747	0.002594	0.46143	0.019684	0.085144	0.2565	-0.022888	0.097046	-0.20309	-0.08194	-0.097351	0.027161	-0.04364	-2.2151	-0.61935	0.15289	-0.21164	0.1593	0.25787	0.13001	-0.073242	-0.13718	-0.14252	-0.079193	-0.88058	-0.14648	-0.006866	-0.026093
46.158	-0.014954	-0.28153	0.077515	-0.029449	0.016327	-0.021515	0.42877	0.018005	0.098419	0.3804	-0.007324	0.041809	-0.15854	-0.014191	-0.12955	0.00946	-0.083923	-2.6173	-1.6028	0.16113	0.056152	0.022736	-0.018616	0.18814	0.035706	0.019684	-0.15518	-0.11993	-0.78888	0.14603	0.002747	-0.02594
46.159	-0.003357	-0.18723	0.094147	-0.027466	0.019226	-0.024719	0.39322	0.016022	0.10239	0.39169	-0.041962	0.063019	-0.13168	0.018311	-0.037994	0.018616	-0.049744	-2.8644	-1.8756	0.066376	0.30762	-0.1506	0.026398	0.099335	0.1059	0.070343	-0.22003	0.042877	1.0542	0.43747	0.002441	-0.014191
46.16	-0.00061	-0.087128	0.10681	-0.032654	0.008392	-0.010376	0.33295	0.011902	0.12802	0.34409	-0.029907	0.075378	-0.14069	0.038757	0.06958	0.013733	-0.01358	-3.0576	-1.1871	-0.11673	0.14603	-0.47104	0.27741	-0.033112	0.12726	0.005798	-0.17944	0.022736	0.87585	0.26733	-0.002594	-0.00946
46.161	0.002594	0.050659	0.11551	-0.020905	0.002594	-0.011444	0.26306	0.020447	0.14969	-0.14008	0.18494	0.072937	-0.17685	0.072937	0.15549	0.018616	0.004425	-3.0728	-0.55466	-0.16937	0.13336	-0.44876	0.40787	-0.16922	0.17975	-0.24643	-0.065308	-0.031128	-0.74356	0.21912	-0.00061	-0.01236
46.162	0.010986	0.14511	0.14038	-0.027466	0.007019	-0.002747	0.16937	0.020599	0.159	-0.2829	0.30701	0.07431	-0.16495	0.13153	0.10696	0.027161	0.009308	-3.0028	0.51224	-0.15472	-0.066528	-0.32669	0.32684	-0.093689	0.31326	-0.11597	-0.028381	-0.007935	-0.53574	0.22934	-0.001373	-0.008545
46.163	0.014954	0.25223	0.13336	-0.013275	0.015869	-0.042419	0.17624	0.013733	0.15991	-0.3122	0.27649	0.074005	-0.10315	0.18967	0.32532	0.026245	0.019073	-2.9086	0.75897	0.006104	-0.10056	-0.46387	0.12054	-0.16296	0.050812	-0.019684	0.051117	-0.050964	-0.90164	0.32349	0.00061	-0.022583
46.164	0.008392	0.42267	0.095215	-0.009003	0.007477	-0.037994	0.15717	0.024719	0.15915	-0.1474	0.23865	0.068054	-0.021362	0.20477	0.25375	0.011292	0.063171	-2.7475	1.0536	0.059204	0.081329	-0.77408	0.11475	-0.23086	-0.50537	0.053101	0.069885	0.36026	-1.3727	0.23193	-0.000916	-0.03418
